<svg width="67" height="30" viewBox="0 0 67 30" fill="none" xmlns="http://www.w3.org/2000/svg">
<path d="M25.625 3.125H4.375L6.25 24.375L15 26.875L23.75 24.375L25.625 3.125Z" fill="#0277BD"/>
<path d="M15 5V24.9375L22 22.9375L23.5625 5H15Z" fill="#039BE5"/>
<path d="M20.6875 8.125H15V10.625H18.0625L17.875 13.125H15V15.625H17.75L17.5625 18.4375L15 19.3125V21.9375L19.9375 20.3125L20.375 13.125L20.6875 8.125Z" fill="white"/>
<path d="M15 8.125V10.625H9.4375L9.25 8.125H15ZM12.125 13.125L12.25 15.625H15V13.125H12.125ZM12.375 16.875H9.875L10.0625 20.3125L15 21.9375V19.3125L12.4375 18.4375L12.375 16.875Z" fill="#EEEEEE"/>
<path d="M43.9961 23.1953C43.0326 23.1953 42.1829 22.9967 41.4473 22.5996C40.7116 22.2025 40.1387 21.597 39.7285 20.7832C39.3184 19.9694 39.1133 18.944 39.1133 17.707C39.1133 16.4115 39.3281 15.3535 39.7578 14.5332C40.194 13.7064 40.793 13.0944 41.5547 12.6973C42.3164 12.3001 43.1823 12.1016 44.1523 12.1016C44.6862 12.1016 45.2005 12.1569 45.6953 12.2676C46.1966 12.3717 46.6068 12.5052 46.9258 12.668L46.4375 14.0254C46.112 13.8952 45.7344 13.778 45.3047 13.6738C44.8815 13.5697 44.4844 13.5176 44.1133 13.5176C43.3711 13.5176 42.7526 13.6771 42.2578 13.9961C41.7695 14.3151 41.4017 14.7839 41.1543 15.4023C40.9134 16.0208 40.793 16.7826 40.793 17.6875C40.793 18.5534 40.9102 19.2923 41.1445 19.9043C41.3854 20.5163 41.7402 20.985 42.209 21.3105C42.6842 21.6296 43.2767 21.7891 43.9863 21.7891C44.5527 21.7891 45.0638 21.7305 45.5195 21.6133C45.9753 21.4896 46.3887 21.3464 46.7598 21.1836V22.6289C46.4017 22.8112 46.0013 22.9512 45.5586 23.0488C45.1224 23.1465 44.6016 23.1953 43.9961 23.1953ZM56.2227 20.0703C56.2227 20.7539 56.0501 21.3301 55.7051 21.7988C55.3665 22.2611 54.8783 22.6094 54.2402 22.8438C53.6087 23.0781 52.8535 23.1953 51.9746 23.1953C51.2259 23.1953 50.5781 23.1367 50.0312 23.0195C49.4844 22.9023 49.0059 22.7363 48.5957 22.5215V21.0273C49.0319 21.2422 49.5527 21.4375 50.1582 21.6133C50.7637 21.7891 51.3822 21.877 52.0137 21.877C52.9382 21.877 53.6087 21.7272 54.0254 21.4277C54.4421 21.1283 54.6504 20.7214 54.6504 20.207C54.6504 19.9141 54.5658 19.6569 54.3965 19.4355C54.2337 19.2077 53.957 18.9896 53.5664 18.7812C53.1758 18.5664 52.6354 18.332 51.9453 18.0781C51.2617 17.8177 50.6693 17.5605 50.168 17.3066C49.6732 17.0462 49.2891 16.7305 49.0156 16.3594C48.7487 15.9883 48.6152 15.5065 48.6152 14.9141C48.6152 14.0091 48.9798 13.3158 49.709 12.834C50.4447 12.3457 51.4082 12.1016 52.5996 12.1016C53.2441 12.1016 53.8464 12.1667 54.4062 12.2969C54.9727 12.4206 55.5 12.5898 55.9883 12.8047L55.4414 14.1035C54.9987 13.9147 54.5267 13.7552 54.0254 13.625C53.5241 13.4948 53.013 13.4297 52.4922 13.4297C51.7435 13.4297 51.1673 13.5534 50.7637 13.8008C50.3665 14.0482 50.168 14.3867 50.168 14.8164C50.168 15.1484 50.2591 15.4219 50.4414 15.6367C50.6302 15.8516 50.9297 16.0534 51.3398 16.2422C51.75 16.431 52.2904 16.6523 52.9609 16.9062C53.6315 17.1536 54.2109 17.4108 54.6992 17.6777C55.1875 17.9382 55.5618 18.2572 55.8223 18.6348C56.0892 19.0059 56.2227 19.4844 56.2227 20.0703ZM65.7539 20.0703C65.7539 20.7539 65.5814 21.3301 65.2363 21.7988C64.8978 22.2611 64.4095 22.6094 63.7715 22.8438C63.14 23.0781 62.3848 23.1953 61.5059 23.1953C60.7572 23.1953 60.1094 23.1367 59.5625 23.0195C59.0156 22.9023 58.5371 22.7363 58.127 22.5215V21.0273C58.5632 21.2422 59.084 21.4375 59.6895 21.6133C60.2949 21.7891 60.9134 21.877 61.5449 21.877C62.4694 21.877 63.14 21.7272 63.5566 21.4277C63.9733 21.1283 64.1816 20.7214 64.1816 20.207C64.1816 19.9141 64.097 19.6569 63.9277 19.4355C63.765 19.2077 63.4883 18.9896 63.0977 18.7812C62.707 18.5664 62.1667 18.332 61.4766 18.0781C60.793 17.8177 60.2005 17.5605 59.6992 17.3066C59.2044 17.0462 58.8203 16.7305 58.5469 16.3594C58.2799 15.9883 58.1465 15.5065 58.1465 14.9141C58.1465 14.0091 58.5111 13.3158 59.2402 12.834C59.9759 12.3457 60.9395 12.1016 62.1309 12.1016C62.7754 12.1016 63.3776 12.1667 63.9375 12.2969C64.5039 12.4206 65.0312 12.5898 65.5195 12.8047L64.9727 14.1035C64.5299 13.9147 64.0579 13.7552 63.5566 13.625C63.0553 13.4948 62.5443 13.4297 62.0234 13.4297C61.2747 13.4297 60.6986 13.5534 60.2949 13.8008C59.8978 14.0482 59.6992 14.3867 59.6992 14.8164C59.6992 15.1484 59.7904 15.4219 59.9727 15.6367C60.1615 15.8516 60.4609 16.0534 60.8711 16.2422C61.2812 16.431 61.8216 16.6523 62.4922 16.9062C63.1628 17.1536 63.7422 17.4108 64.2305 17.6777C64.7188 17.9382 65.0931 18.2572 65.3535 18.6348C65.6204 19.0059 65.7539 19.4844 65.7539 20.0703Z" fill="#212121"/>
</svg>
