<svg width="104" height="30" viewBox="0 0 104 30" fill="none" xmlns="http://www.w3.org/2000/svg">
<path d="M15.0294 3.12498C14.0575 3.12811 13.3838 3.21373 12.5694 3.35436C10.1644 3.77311 9.72628 4.65248 9.72628 6.27311V8.74998H15.3513V9.99998H9.51253H6.79378C5.14628 9.99998 3.70441 10.7762 3.24753 12.6369C2.73128 14.7725 2.70816 16.11 3.24753 18.34C3.65691 20.0031 4.55878 21.25 6.20691 21.25H8.47691V18.06C8.47691 16.2062 10.1557 14.375 12.0794 14.375H16.6019C18.1788 14.375 19.7269 13.2112 19.7269 11.6394V6.27311C19.7269 4.74873 18.6275 3.60873 17.0907 3.35311C17.1288 3.34936 15.9932 3.12123 15.0294 3.12498ZM11.9144 5.62498C12.4275 5.62498 12.8519 6.04811 12.8519 6.56373C12.8519 7.08436 12.4275 7.49998 11.9144 7.49998C11.3913 7.49998 10.9769 7.08498 10.9769 6.56373C10.9769 6.04998 11.3913 5.62498 11.9144 5.62498Z" fill="#0277BD"/>
<path d="M14.4238 26.875C15.3956 26.8719 16.0694 26.7862 16.8838 26.6456C19.2888 26.2269 19.7269 25.3475 19.7269 23.7269V21.25H14.1019V20H19.9413H22.66C24.3075 20 25.7494 19.2238 26.2063 17.3631C26.7225 15.2275 26.7456 13.89 26.2063 11.66C25.7963 9.99688 24.8944 8.75 23.2463 8.75H20.9763V11.94C20.9763 13.7938 19.2975 15.625 17.3738 15.625H12.8513C11.2744 15.625 9.72626 16.7888 9.72626 18.3606V23.7269C9.72626 25.2513 10.8256 26.3912 12.3625 26.6469C12.3244 26.6506 13.46 26.8787 14.4238 26.875ZM17.5394 24.375C17.0263 24.375 16.6019 23.9519 16.6019 23.4363C16.6019 22.9156 17.0263 22.5 17.5394 22.5C18.0625 22.5 18.4769 22.915 18.4769 23.4363C18.4769 23.95 18.0619 24.375 17.5394 24.375Z" fill="#FFC107"/>
<path d="M44.7383 12.1016C46.0729 12.1016 47.1374 12.5605 47.9316 13.4785C48.7259 14.3965 49.123 15.7767 49.123 17.6191C49.123 18.8366 48.9408 19.8587 48.5762 20.6855C48.2116 21.5124 47.6973 22.1374 47.0332 22.5605C46.3757 22.9837 45.5977 23.1953 44.6992 23.1953C44.1328 23.1953 43.6348 23.1204 43.2051 22.9707C42.7754 22.821 42.4076 22.6191 42.1016 22.3652C41.7956 22.1113 41.5417 21.8346 41.3398 21.5352H41.2227C41.2422 21.7891 41.265 22.0951 41.291 22.4531C41.3236 22.8112 41.3398 23.1237 41.3398 23.3906V27.7852H39.709V12.2969H41.0469L41.2617 13.8789H41.3398C41.5482 13.5534 41.8021 13.2572 42.1016 12.9902C42.401 12.7168 42.7656 12.502 43.1953 12.3457C43.6315 12.1829 44.1458 12.1016 44.7383 12.1016ZM44.4551 13.4688C43.7129 13.4688 43.1139 13.612 42.6582 13.8984C42.209 14.1849 41.8802 14.6146 41.6719 15.1875C41.4635 15.7539 41.3529 16.4668 41.3398 17.3262V17.6387C41.3398 18.5436 41.4375 19.3086 41.6328 19.9336C41.8346 20.5586 42.1634 21.0339 42.6191 21.3594C43.0814 21.6849 43.6999 21.8477 44.4746 21.8477C45.1387 21.8477 45.6921 21.6686 46.1348 21.3105C46.5775 20.9525 46.9062 20.4544 47.1211 19.8164C47.3424 19.1719 47.4531 18.4329 47.4531 17.5996C47.4531 16.3366 47.2057 15.334 46.7109 14.5918C46.2227 13.8431 45.4707 13.4688 44.4551 13.4688ZM50.2656 12.2969H52.0039L54.3672 18.5078C54.5039 18.8724 54.6309 19.224 54.748 19.5625C54.8652 19.8945 54.9694 20.2135 55.0605 20.5195C55.1517 20.8255 55.2233 21.1217 55.2754 21.4082H55.3438C55.4349 21.0827 55.5651 20.6562 55.7344 20.1289C55.9036 19.5951 56.0859 19.0514 56.2812 18.498L58.5176 12.2969H60.2656L55.6074 24.5723C55.36 25.2298 55.0703 25.8027 54.7383 26.291C54.4128 26.7793 54.0156 27.1536 53.5469 27.4141C53.0781 27.681 52.5117 27.8145 51.8477 27.8145C51.5417 27.8145 51.2715 27.7949 51.0371 27.7559C50.8027 27.7233 50.6009 27.6842 50.4316 27.6387V26.3398C50.5749 26.3724 50.7474 26.4017 50.9492 26.4277C51.1576 26.4538 51.3724 26.4668 51.5938 26.4668C51.9974 26.4668 52.3457 26.3887 52.6387 26.2324C52.9382 26.0827 53.1953 25.8613 53.4102 25.5684C53.625 25.2754 53.8105 24.9271 53.9668 24.5234L54.5527 23.0195L50.2656 12.2969ZM65.4316 21.8672C65.6986 21.8672 65.972 21.8444 66.252 21.7988C66.5319 21.7533 66.7598 21.6979 66.9355 21.6328V22.8926C66.7467 22.9772 66.4831 23.0488 66.1445 23.1074C65.8125 23.166 65.487 23.1953 65.168 23.1953C64.6016 23.1953 64.0872 23.0977 63.625 22.9023C63.1628 22.7005 62.7917 22.362 62.5117 21.8867C62.2383 21.4115 62.1016 20.7539 62.1016 19.9141V13.5664H60.5781V12.7754L62.1113 12.1406L62.7559 9.81641H63.7324V12.2969H66.8672V13.5664H63.7324V19.8652C63.7324 20.5358 63.8854 21.0371 64.1914 21.3691C64.5039 21.7012 64.9173 21.8672 65.4316 21.8672ZM70.7246 7.80469V12.3457C70.7246 12.6061 70.7181 12.8698 70.7051 13.1367C70.6921 13.3971 70.6693 13.638 70.6367 13.8594H70.7441C70.9655 13.4818 71.2454 13.166 71.584 12.9121C71.929 12.6517 72.3197 12.4564 72.7559 12.3262C73.1921 12.1895 73.6543 12.1211 74.1426 12.1211C75.002 12.1211 75.7181 12.2578 76.291 12.5312C76.8704 12.8047 77.3034 13.2279 77.5898 13.8008C77.8828 14.3737 78.0293 15.1159 78.0293 16.0273V23H76.4277V16.1348C76.4277 15.2428 76.2227 14.5755 75.8125 14.1328C75.4089 13.6901 74.7871 13.4688 73.9473 13.4688C73.153 13.4688 72.5182 13.6217 72.043 13.9277C71.5742 14.2272 71.2357 14.6699 71.0273 15.2559C70.8255 15.8418 70.7246 16.5579 70.7246 17.4043V23H69.1035V7.80469H70.7246ZM90.5977 17.6289C90.5977 18.5078 90.4837 19.2923 90.2559 19.9824C90.028 20.6725 89.6992 21.2552 89.2695 21.7305C88.8398 22.2057 88.319 22.5703 87.707 22.8242C87.1016 23.0716 86.4147 23.1953 85.6465 23.1953C84.9303 23.1953 84.2728 23.0716 83.6738 22.8242C83.0814 22.5703 82.5671 22.2057 82.1309 21.7305C81.7012 21.2552 81.3659 20.6725 81.125 19.9824C80.8906 19.2923 80.7734 18.5078 80.7734 17.6289C80.7734 16.457 80.972 15.4609 81.3691 14.6406C81.7663 13.8138 82.3327 13.1855 83.0684 12.7559C83.8105 12.3197 84.6927 12.1016 85.7148 12.1016C86.6914 12.1016 87.5443 12.3197 88.2734 12.7559C89.0091 13.1921 89.5788 13.8236 89.9824 14.6504C90.3926 15.4707 90.5977 16.4635 90.5977 17.6289ZM82.4531 17.6289C82.4531 18.4883 82.5671 19.2337 82.7949 19.8652C83.0228 20.4967 83.3743 20.985 83.8496 21.3301C84.3249 21.6751 84.9368 21.8477 85.6855 21.8477C86.4277 21.8477 87.0365 21.6751 87.5117 21.3301C87.9935 20.985 88.3483 20.4967 88.5762 19.8652C88.804 19.2337 88.918 18.4883 88.918 17.6289C88.918 16.776 88.804 16.0404 88.5762 15.4219C88.3483 14.7969 87.9967 14.3151 87.5215 13.9766C87.0462 13.638 86.431 13.4688 85.6758 13.4688C84.5625 13.4688 83.7454 13.8366 83.2246 14.5723C82.7103 15.3079 82.4531 16.3268 82.4531 17.6289ZM98.4688 12.1016C99.7383 12.1016 100.699 12.4141 101.35 13.0391C102.001 13.6576 102.326 14.6536 102.326 16.0273V23H100.725V16.1348C100.725 15.2428 100.52 14.5755 100.109 14.1328C99.7057 13.6901 99.084 13.4688 98.2441 13.4688C97.0592 13.4688 96.2259 13.804 95.7441 14.4746C95.2624 15.1452 95.0215 16.1185 95.0215 17.3945V23H93.4004V12.2969H94.709L94.9531 13.8398H95.041C95.2689 13.4622 95.5586 13.1465 95.9102 12.8926C96.2617 12.6322 96.6556 12.4368 97.0918 12.3066C97.528 12.1699 97.987 12.1016 98.4688 12.1016Z" fill="#212121"/>
</svg>
