<svg width="50" height="50" viewBox="0 0 50 50" fill="none" xmlns="http://www.w3.org/2000/svg">
<rect x="0.5" y="0.5" width="49" height="49" rx="24.5" stroke="#09A494"/>
<path d="M19.6761 14C15.9994 14 13 16.9994 13 20.6761V30.3239C13 34.0006 15.9994 37 19.6761 37H29.3239C33.0006 37 36 34.0006 36 30.3239V20.6761C36 16.9994 33.0006 14 29.3239 14H19.6761ZM19.6761 15.7692H29.3239C32.0434 15.7692 34.2308 17.9531 34.2308 20.6761V30.3239C34.2308 33.0434 32.0469 35.2308 29.3239 35.2308H19.6761C16.9566 35.2308 14.7692 33.0469 14.7692 30.3239V20.6761C14.7692 17.9566 16.9531 15.7692 19.6761 15.7692ZM31.1346 17.5385C30.402 17.5385 29.8077 18.1328 29.8077 18.8654C29.8077 19.598 30.402 20.1923 31.1346 20.1923C31.8672 20.1923 32.4615 19.598 32.4615 18.8654C32.4615 18.1328 31.8672 17.5385 31.1346 17.5385ZM24.5 19.3077C21.0894 19.3077 18.3077 22.0894 18.3077 25.5C18.3077 28.9106 21.0894 31.6923 24.5 31.6923C27.9106 31.6923 30.6923 28.9106 30.6923 25.5C30.6923 22.0894 27.9106 19.3077 24.5 19.3077ZM24.5 21.0769C26.9534 21.0769 28.9231 23.0466 28.9231 25.5C28.9231 27.9534 26.9534 29.9231 24.5 29.9231C22.0466 29.9231 20.0769 27.9534 20.0769 25.5C20.0769 23.0466 22.0466 21.0769 24.5 21.0769Z" fill="black"/>
</svg>
